<?xml version="1.0" standalone="no"?>
<!DOCTYPE svg PUBLIC "-//W3C//DTD SVG 20010904//EN"
 "http://www.w3.org/TR/2001/REC-SVG-20010904/DTD/svg10.dtd">
<svg version="1.0" xmlns="http://www.w3.org/2000/svg"
 width="1280.000000pt" height="1280.000000pt" viewBox="0 0 1280.000000 1280.000000"
 preserveAspectRatio="xMidYMid meet">
<metadata>
Created by potrace 1.16, written by Peter Selinger 2001-2019
</metadata>
<g transform="translate(0.000000,1280.000000) scale(0.100000,-0.100000)"
fill="#000000" stroke="none">
<path d="M0 6400 l0 -6400 6400 0 6400 0 0 6400 0 6400 -6400 0 -6400 0 0
-6400z m5017 4063 c85 -47 106 -91 107 -223 1 -105 -12 -145 -61 -192 -29 -27
-178 -118 -194 -118 -18 0 -39 -49 -45 -108 -8 -72 -26 -94 -80 -96 -33 -1
-37 2 -51 37 -14 33 -14 46 -3 95 7 31 19 69 26 83 16 33 78 87 131 114 66 34
120 74 137 100 18 27 22 110 6 120 -5 3 -10 15 -10 25 0 10 -12 28 -27 40 -24
19 -37 21 -86 17 -72 -6 -101 -25 -128 -82 -18 -38 -26 -44 -59 -50 -61 -10
-80 0 -80 43 0 84 103 183 215 208 91 20 149 17 202 -13z m-685 -110 c22 -20
23 -53 3 -268 -8 -88 -15 -204 -15 -257 0 -88 -2 -98 -20 -108 -26 -14 -85 3
-95 28 -12 30 -24 535 -13 557 32 63 98 86 140 48z m-2853 -632 c13 -8 25 -40
81 -201 10 -30 37 -107 60 -170 23 -63 52 -145 64 -181 22 -68 41 -99 58 -99
6 0 85 50 176 110 91 61 173 110 183 110 36 0 35 -41 -6 -225 -9 -38 -20 -90
-25 -115 -34 -172 -38 -180 -71 -180 -34 0 -33 46 7 215 28 120 32 154 20 165
-8 6 -55 -20 -143 -80 -72 -48 -140 -93 -151 -99 -42 -23 -47 -16 -127 209
-14 39 -36 102 -50 140 -60 169 -78 216 -86 224 -9 10 -49 -51 -49 -77 0 -9
-4 -25 -10 -35 -5 -9 -28 -75 -51 -147 -55 -173 -69 -205 -88 -205 -18 0 -119
88 -306 264 -125 118 -154 130 -140 58 7 -39 27 -197 46 -365 10 -85 9 -101
-3 -114 -12 -12 -23 -13 -54 -4 -22 6 -91 22 -154 36 -137 32 -166 39 -247 59
-72 18 -99 20 -108 6 -5 -8 82 -113 334 -402 48 -56 39 -78 -41 -102 -35 -10
-72 -22 -83 -26 -27 -10 -160 -50 -210 -61 -41 -10 -65 -25 -65 -40 0 -5 21
-18 47 -30 27 -12 80 -36 118 -54 39 -18 91 -42 117 -53 26 -12 52 -30 57 -41
14 -25 0 -39 -188 -186 -85 -66 -163 -128 -175 -137 -17 -13 -18 -19 -9 -29
10 -10 53 -10 219 0 221 14 228 13 222 -34 -4 -28 -77 -35 -378 -38 -315 -3
-315 -3 -100 158 151 114 293 229 293 240 0 10 -72 49 -174 94 -158 70 -219
103 -219 119 0 27 13 40 45 47 17 4 39 10 50 15 17 7 89 29 200 61 17 4 53 15
80 23 82 23 105 35 105 51 0 15 -47 73 -200 245 -37 41 -101 117 -144 169 -77
94 -78 94 -58 114 21 20 35 19 162 -13 53 -13 152 -36 280 -65 63 -14 131 -31
151 -37 62 -18 68 -2 49 129 -5 38 -14 103 -20 146 -6 43 -15 112 -20 155 -5
42 -12 93 -16 114 -5 31 -3 38 16 48 31 17 23 22 245 -185 151 -141 236 -215
246 -215 14 0 26 30 103 263 41 125 80 236 86 247 12 21 27 25 49 11z m2868
-137 c27 -21 33 -32 33 -63 0 -45 -23 -95 -53 -116 -31 -21 -120 -20 -139 3
-39 43 -28 120 25 180 29 31 89 30 134 -4z m1275 8 c62 -16 127 -61 170 -116
52 -67 68 -114 68 -203 0 -63 -3 -74 -22 -87 -20 -14 -24 -14 -44 5 -17 15
-23 37 -28 95 -4 42 -12 86 -19 97 -38 68 -125 127 -188 127 -20 0 -34 8 -45
25 -16 25 -16 27 7 51 16 17 31 24 44 20 11 -2 37 -9 57 -14z m-780 -15 c18
-28 8 -68 -24 -98 -61 -55 -168 -38 -168 27 0 13 14 40 32 60 32 36 33 36 92
30 33 -3 63 -12 68 -19z m6056 -99 c26 -6 58 -19 73 -29 32 -22 73 -98 90
-166 11 -46 11 -60 -4 -106 -14 -44 -32 -68 -102 -138 l-85 -84 0 -82 c0 -81
0 -83 -30 -98 -40 -21 -46 -20 -69 19 -16 25 -21 50 -21 102 0 82 2 87 117
206 72 76 83 92 83 123 0 40 -13 66 -54 113 -33 36 -41 37 -99 20 -50 -15 -97
-61 -97 -96 0 -34 -7 -44 -48 -68 -91 -53 -97 87 -8 193 25 29 97 70 161 92
40 13 39 13 93 -1z m-5289 -65 c27 -17 55 -45 67 -68 28 -52 38 -126 20 -150
-19 -26 -46 -12 -46 23 0 79 -48 145 -122 167 -66 19 -70 23 -57 47 9 17 18
19 51 15 22 -3 61 -18 87 -34z m-2398 -107 c77 -32 50 -71 -30 -42 -25 9 -73
16 -106 16 -77 0 -146 -38 -201 -110 -36 -47 -62 -60 -71 -34 -2 6 11 33 30
60 35 51 108 107 161 124 43 13 173 5 217 -14z m7119 -81 c13 -16 29 -93 55
-260 9 -60 26 -147 37 -193 23 -93 17 -112 -33 -112 -48 0 -70 52 -128 300
-11 47 -26 112 -35 144 -16 62 -12 79 22 119 18 21 65 22 82 2z m-4680 -407
c146 -205 288 -406 316 -448 28 -41 170 -242 315 -447 145 -204 296 -417 334
-473 104 -152 101 -150 251 -150 l124 0 6 -27 c3 -16 15 -62 26 -103 11 -41
24 -91 28 -110 5 -19 16 -62 25 -95 9 -33 32 -118 50 -190 19 -71 41 -157 51
-190 9 -33 20 -76 24 -95 5 -19 20 -80 35 -135 15 -55 31 -116 35 -135 5 -19
14 -56 21 -82 15 -57 5 -73 -49 -83 -20 -3 -50 -10 -67 -15 -57 -16 -175 -47
-285 -75 -36 -9 -78 -21 -95 -26 -16 -5 -68 -18 -115 -30 -47 -11 -128 -32
-180 -46 -153 -40 -278 -73 -380 -100 -52 -14 -111 -29 -130 -33 -19 -5 -62
-16 -95 -25 -33 -9 -78 -21 -100 -25 -22 -5 -65 -17 -95 -26 -30 -8 -71 -19
-90 -24 -19 -4 -62 -15 -95 -25 -33 -9 -76 -20 -95 -25 -19 -4 -62 -15 -95
-25 -33 -9 -76 -20 -95 -25 -19 -4 -98 -24 -175 -45 -186 -49 -362 -95 -405
-105 -19 -5 -60 -16 -90 -24 -53 -14 -123 -33 -345 -91 -55 -15 -116 -30 -135
-35 -19 -4 -62 -15 -95 -25 -33 -9 -76 -20 -95 -25 -19 -4 -89 -22 -155 -40
-66 -17 -147 -38 -180 -46 -33 -8 -75 -19 -93 -25 -19 -6 -95 -27 -170 -46
-75 -19 -180 -46 -232 -60 -52 -14 -111 -29 -130 -33 -19 -5 -60 -16 -90 -24
-97 -26 -254 -68 -290 -76 -19 -5 -62 -16 -95 -25 -33 -9 -76 -20 -95 -25 -19
-4 -62 -15 -95 -25 -33 -9 -71 -19 -85 -22 -14 -3 -45 -11 -70 -18 -76 -21
-122 -34 -205 -54 -44 -11 -107 -27 -140 -37 -33 -9 -76 -20 -95 -24 -19 -5
-78 -20 -130 -34 -177 -47 -295 -78 -330 -86 -19 -5 -62 -16 -95 -25 -109 -30
-111 -30 -119 2 -10 40 -23 89 -41 158 -9 33 -20 76 -24 95 -5 19 -23 89 -41
155 -17 66 -40 152 -50 190 -10 39 -26 97 -35 130 -9 33 -20 76 -25 95 -4 19
-22 89 -40 155 -18 66 -35 134 -38 150 -2 17 -8 35 -12 40 -9 10 11 45 25 45
5 0 22 10 39 23 17 12 48 31 69 42 21 11 53 32 70 46 31 26 32 31 39 120 3 52
14 162 23 244 9 83 20 193 25 245 5 52 16 160 25 240 9 80 20 188 25 240 18
188 29 307 39 390 6 47 15 130 20 185 14 135 54 522 64 615 2 15 50 42 157 89
30 13 80 35 110 49 30 13 64 28 75 32 11 5 51 23 88 39 38 17 70 31 72 31 3 0
30 12 62 26 32 14 67 29 78 34 11 4 40 17 65 28 25 11 97 41 160 67 162 66
190 78 283 119 32 14 62 26 67 26 6 0 18 4 28 10 9 5 94 39 187 75 94 37 179
70 190 75 72 31 365 127 455 150 33 8 151 32 250 50 40 8 113 18 340 50 36 5
119 17 185 25 66 9 149 20 185 25 61 8 174 21 355 41 89 10 204 22 375 38 63
6 143 16 176 21 34 6 88 10 120 11 33 0 79 4 104 8 25 5 50 9 55 10 6 0 129
-166 275 -371z m-2477 351 c40 -11 57 -33 39 -51 -8 -8 -24 -7 -56 2 -79 22
-142 -6 -199 -90 -16 -22 -18 -23 -33 -8 -15 15 -15 19 7 57 47 85 139 119
242 90z m7782 -522 c14 -22 14 -28 0 -61 -27 -64 -104 -95 -153 -60 -27 18
-29 55 -5 92 27 42 44 51 95 52 39 0 50 -4 63 -23z m-447 -120 c6 -5 12 -28
12 -51 0 -55 -44 -102 -84 -92 -38 9 -60 58 -46 102 19 57 73 77 118 41z
m-996 -77 c100 -28 475 -499 660 -828 54 -97 124 -243 153 -322 15 -41 31 -84
35 -95 8 -19 32 -103 44 -155 13 -49 36 -196 36 -225 0 -16 -16 -64 -37 -105
-47 -96 -49 -101 -67 -187 -49 -224 26 -467 195 -634 93 -92 170 -139 295
-181 58 -19 90 -23 204 -23 115 0 146 4 205 23 86 29 163 69 234 123 l53 40
47 -15 c145 -48 157 -50 271 -51 99 0 121 3 156 22 92 49 155 155 193 328 19
88 30 332 21 470 -15 215 -13 290 10 334 66 130 244 158 347 55 69 -70 82
-149 83 -514 0 -254 -13 -388 -50 -525 -42 -152 -121 -302 -212 -401 -69 -75
-204 -156 -308 -186 -111 -31 -341 -35 -455 -7 -162 39 -293 87 -441 161 -34
17 -68 29 -76 25 -9 -3 -63 -65 -122 -139 -59 -73 -133 -167 -166 -208 -33
-41 -202 -253 -376 -470 l-315 -395 6 -40 c11 -75 18 -233 11 -251 -5 -14 -19
2 -60 72 -29 49 -55 96 -59 104 -4 8 -15 29 -25 45 -68 111 -85 159 -65 179
13 13 33 89 48 177 11 72 11 102 0 175 -7 49 -18 105 -25 124 -84 248 -303
433 -551 466 -56 8 -71 22 -130 129 -54 99 -61 114 -53 127 4 6 79 102 167
212 88 111 198 248 244 306 46 58 112 141 148 185 35 44 98 123 140 175 l76
95 -5 115 c-4 125 -13 180 -46 280 -98 301 -293 613 -615 984 -90 103 -104
126 -111 180 -11 75 3 129 43 176 62 72 149 96 245 70z m1693 -142 c15 -35 42
-94 60 -133 17 -38 37 -86 45 -105 17 -44 50 -92 60 -88 5 2 68 59 140 128 73
69 140 126 150 128 32 6 39 -18 29 -98 -21 -180 -30 -323 -20 -333 7 -7 63 7
169 42 162 54 204 60 210 28 2 -9 -52 -100 -123 -207 -70 -105 -125 -196 -122
-204 3 -7 27 -20 54 -30 26 -10 57 -21 68 -26 11 -4 43 -16 70 -25 63 -22 77
-33 73 -57 -3 -21 -24 -35 -113 -74 -33 -15 -87 -40 -120 -55 -74 -35 -104
-39 -118 -17 -15 22 5 44 60 69 24 10 64 28 89 39 61 28 55 47 -21 74 -33 12
-64 24 -70 27 -5 4 -22 9 -37 13 -35 8 -48 49 -24 75 9 10 16 20 16 23 0 3 38
62 85 132 47 69 85 130 85 135 0 22 -25 19 -151 -23 -101 -33 -139 -42 -153
-34 -20 11 -20 8 3 242 8 73 8 113 1 120 -6 6 -32 -12 -77 -55 -38 -35 -88
-83 -113 -107 -65 -61 -87 -57 -118 23 -22 55 -85 196 -104 234 -7 14 -17 24
-23 23 -5 0 -18 -36 -28 -79 -73 -304 -66 -283 -97 -283 -15 0 -33 6 -39 14
-25 29 -181 137 -191 131 -13 -8 -13 -49 -1 -89 5 -17 15 -55 22 -85 11 -50
10 -56 -7 -68 -18 -13 -51 -11 -104 7 -126 42 -210 58 -210 38 0 -7 28 -47 61
-88 84 -103 92 -116 84 -140 -10 -32 -41 -23 -79 23 -19 23 -74 89 -122 147
-93 113 -110 140 -101 164 10 26 48 20 247 -39 30 -9 75 -20 98 -24 52 -10 59
0 44 62 -70 275 -59 287 134 147 69 -50 131 -89 138 -87 11 4 29 67 57 202 6
28 14 64 19 80 4 17 11 48 15 70 10 56 22 75 49 75 19 0 28 -12 51 -62z
m-4046 -645 c28 -9 69 -31 90 -50 89 -75 148 -234 78 -207 -8 3 -22 25 -31 48
-23 60 -77 120 -132 145 -39 19 -61 22 -135 20 -94 -3 -110 2 -93 29 22 34
140 42 223 15z m4065 -669 c196 -64 340 -210 412 -419 13 -38 18 -82 17 -180
0 -117 -3 -137 -28 -205 -72 -195 -204 -323 -410 -397 -39 -13 -80 -18 -185
-18 -125 0 -141 3 -210 29 -211 82 -352 240 -404 457 -26 107 -15 263 24 354
36 83 48 106 81 151 77 106 209 198 339 238 27 8 94 14 165 15 104 1 131 -3
199 -25z m-2458 -279 c49 -31 70 -65 40 -65 -9 0 -35 12 -58 26 -31 20 -60 28
-108 32 -78 5 -136 -16 -189 -71 -32 -34 -61 -39 -61 -12 0 19 49 64 105 97
46 27 56 29 136 26 75 -3 92 -7 135 -33z m-48 -392 c17 -27 39 -64 49 -83 57
-103 87 -155 142 -248 34 -57 61 -105 61 -108 0 -2 19 -34 42 -71 43 -71 54
-90 108 -188 18 -33 41 -71 50 -85 17 -25 72 -122 98 -173 18 -36 41 -47 99
-47 172 0 385 -148 469 -325 74 -157 76 -352 4 -500 -26 -54 -25 -77 5 -125
14 -22 25 -42 25 -45 0 -3 15 -29 33 -58 19 -29 45 -72 59 -97 13 -25 38 -70
55 -100 31 -56 145 -252 163 -280 5 -8 21 -37 36 -65 14 -27 31 -57 38 -65 6
-8 16 -24 22 -35 52 -95 79 -143 90 -160 8 -11 14 -25 14 -31 0 -10 -118 -88
-155 -103 -5 -2 -27 -15 -49 -28 -44 -28 -48 -26 -88 47 -66 121 -94 169 -124
218 -19 29 -34 54 -34 56 0 2 -30 55 -66 117 -85 146 -94 162 -134 234 -18 32
-48 83 -66 112 -19 28 -34 55 -34 58 0 4 -9 20 -21 36 -23 33 -41 36 -83 14
-15 -8 -36 -15 -46 -15 -9 0 -24 -8 -33 -18 -15 -16 -13 -22 16 -82 55 -115
37 -239 -46 -317 -28 -27 -189 -133 -202 -133 -2 0 -34 -18 -70 -40 -36 -22
-67 -40 -70 -40 -3 0 -29 -16 -59 -35 -30 -19 -57 -35 -59 -35 -3 0 -56 -30
-118 -66 -63 -37 -134 -78 -159 -92 -25 -14 -58 -34 -75 -44 -16 -10 -37 -21
-45 -25 -8 -3 -26 -14 -40 -23 -14 -10 -52 -32 -85 -50 -33 -18 -80 -44 -105
-58 -25 -14 -56 -33 -70 -42 -14 -9 -52 -32 -85 -50 -104 -57 -128 -71 -213
-121 -114 -68 -145 -79 -216 -79 -74 0 -143 30 -195 84 -39 40 -160 246 -154
261 2 6 20 19 41 30 20 11 60 33 87 51 28 17 78 46 110 64 33 18 74 42 90 52
17 10 37 21 45 25 8 4 38 22 67 40 29 18 54 33 56 33 20 0 193 113 234 153
106 103 147 248 107 383 -47 163 -217 294 -383 294 -50 0 -138 -27 -203 -63
-141 -78 -164 -91 -188 -107 -14 -9 -52 -32 -85 -50 -107 -59 -128 -71 -247
-141 -64 -38 -123 -69 -130 -69 -14 0 -20 8 -60 80 -13 25 -39 71 -56 102 -18
31 -32 59 -32 61 0 3 10 8 23 11 57 17 256 69 287 76 155 35 204 57 278 124
80 73 115 153 116 262 0 45 -6 101 -14 124 -17 52 -11 63 60 102 140 77 167
93 203 115 21 13 53 32 70 42 18 10 57 32 87 48 30 17 86 50 125 72 38 23 76
41 84 41 7 0 52 -37 100 -82 165 -158 170 -163 182 -151 8 8 7 20 -4 44 -8 19
-27 68 -42 109 -15 41 -36 99 -48 128 -24 61 -27 57 78 114 55 31 67 33 150
33 84 -1 93 -3 143 -34 34 -21 67 -54 93 -92 22 -32 43 -59 48 -59 4 0 18 12
32 26 13 14 39 35 57 46 28 17 33 25 27 47 -4 14 -13 33 -21 42 -8 8 -14 19
-14 22 0 4 -11 26 -26 48 -25 40 -32 53 -91 159 -17 30 -58 101 -92 158 -34
57 -61 105 -61 108 0 2 -19 34 -42 71 -43 71 -53 88 -108 188 -18 33 -48 84
-66 112 -26 41 -31 55 -21 64 19 18 221 137 233 138 7 1 25 -20 42 -46z
m-8252 -288 c16 -25 16 -27 -6 -50 -13 -14 -29 -25 -35 -25 -23 0 -79 -34
-115 -70 -47 -47 -65 -115 -56 -202 6 -49 4 -63 -10 -79 -23 -25 -36 -24 -65
7 -22 24 -24 33 -23 123 1 94 2 99 37 154 37 58 139 147 169 147 9 0 20 5 23
10 13 21 64 11 81 -15z m6892 -152 c20 -69 55 -201 67 -253 3 -14 13 -50 21
-80 9 -30 19 -71 24 -90 4 -19 17 -70 29 -112 28 -103 27 -115 -6 -120 -51 -9
-188 -49 -197 -58 -5 -5 -4 -27 3 -52 7 -24 16 -59 21 -78 4 -19 15 -62 25
-95 9 -33 20 -76 25 -95 4 -19 18 -71 30 -115 31 -111 30 -209 -3 -262 -56
-87 -83 -100 -357 -172 -85 -22 -182 -47 -215 -57 -202 -55 -328 14 -375 206
-19 77 -28 113 -45 175 -9 33 -20 76 -25 95 -13 57 -37 143 -49 173 -8 20 -16
27 -29 23 -9 -3 -35 -10 -57 -15 -22 -5 -85 -21 -140 -36 -55 -15 -118 -31
-140 -35 -22 -5 -65 -17 -95 -26 -30 -8 -66 -18 -80 -21 -14 -2 -45 -11 -70
-18 -75 -21 -121 -33 -210 -56 -47 -11 -125 -31 -175 -44 -245 -65 -287 -76
-380 -100 -55 -14 -143 -38 -195 -51 -52 -14 -111 -29 -130 -34 -19 -4 -78
-19 -130 -33 -95 -25 -218 -58 -470 -124 -74 -19 -178 -46 -230 -60 -52 -14
-111 -29 -130 -33 -19 -5 -62 -16 -95 -25 -33 -9 -76 -20 -95 -25 -19 -5 -62
-16 -95 -25 -33 -9 -76 -20 -95 -25 -19 -4 -62 -15 -95 -25 -33 -9 -76 -21
-95 -25 -19 -5 -62 -16 -95 -25 -33 -9 -76 -20 -95 -25 -19 -4 -105 -26 -190
-49 -85 -22 -179 -47 -208 -54 -88 -24 -88 -25 -52 -163 121 -453 121 -456 92
-525 -36 -84 -100 -138 -187 -160 -16 -4 -84 -21 -150 -39 -66 -18 -136 -36
-155 -40 -19 -4 -69 -17 -110 -29 -92 -25 -153 -26 -205 -2 -80 36 -124 89
-145 171 -9 35 -37 144 -86 327 -14 54 -28 110 -31 125 -10 53 -29 59 -108 37
-39 -11 -89 -23 -111 -26 -41 -5 -42 -5 -53 33 -15 50 -26 91 -50 189 -11 44
-27 107 -37 140 -9 33 -20 76 -24 95 -5 19 -18 72 -30 118 -26 97 -23 104 50
120 25 6 90 22 145 37 55 15 116 30 135 35 68 17 226 58 285 75 33 9 76 20 95
25 38 8 103 25 252 65 54 14 141 36 193 50 52 14 139 37 192 51 54 14 114 29
133 34 19 4 62 15 95 25 33 9 76 20 95 25 19 4 62 15 95 25 33 9 76 20 95 25
19 4 62 15 95 25 33 9 76 20 95 25 19 4 89 22 155 40 151 40 180 48 230 60 22
5 65 16 95 24 30 8 99 26 152 40 54 15 142 38 195 52 54 14 114 29 133 34 19
4 62 15 95 25 33 9 76 20 95 25 19 4 62 15 95 25 33 9 76 20 95 25 33 7 227
58 390 101 41 11 136 36 210 56 74 19 178 46 230 60 52 14 111 29 130 33 19 5
62 16 95 25 33 9 76 20 95 25 19 5 62 16 95 25 33 9 76 20 95 25 19 4 62 15
95 25 33 9 76 20 95 25 19 4 62 15 95 25 33 9 76 20 95 25 19 4 89 22 155 40
66 18 136 36 155 40 19 5 79 20 132 34 204 54 294 78 328 86 19 5 62 16 95 25
33 9 76 20 95 25 19 5 67 17 105 28 99 28 100 27 113 -15z m5302 -278 c11 -29
0 -92 -25 -142 -35 -70 -179 -122 -204 -74 -13 24 1 36 66 60 54 19 93 66 93
113 0 64 50 95 70 43z m113 -93 c-2 -74 -38 -148 -91 -188 -72 -56 -218 -88
-210 -47 2 10 12 19 23 21 139 20 223 96 239 215 7 56 13 70 29 64 8 -3 11
-26 10 -65z m-4662 -19 l60 -57 -43 -43 -42 -43 -103 0 -103 0 0 68 0 69 63
31 c34 17 72 31 85 32 15 0 45 -20 83 -57z m-1719 -1390 c95 -85 95 -87 36
-137 -41 -36 -42 -36 -135 -36 l-94 0 3 72 c3 70 4 73 33 86 17 7 46 22 65 32
19 10 38 19 42 19 5 1 27 -16 50 -36z m1535 26 c31 -8 59 -26 92 -59 51 -51
71 -100 71 -171 -1 -103 -45 -161 -185 -244 -49 -29 -106 -62 -125 -74 -19
-11 -42 -24 -50 -28 -8 -3 -26 -14 -40 -23 -14 -10 -45 -28 -70 -42 -113 -62
-162 -90 -255 -145 -55 -32 -107 -62 -115 -66 -8 -4 -24 -13 -35 -19 -28 -19
-91 -56 -128 -77 -18 -10 -57 -31 -87 -48 -30 -17 -101 -58 -158 -92 -57 -34
-105 -61 -108 -61 -2 0 -33 -18 -69 -40 -36 -22 -68 -40 -71 -40 -3 0 -18 -9
-33 -19 -14 -10 -61 -37 -104 -60 -69 -36 -86 -41 -145 -41 -138 0 -232 94
-232 233 0 130 35 168 285 307 93 52 133 75 192 112 34 21 65 38 68 38 2 0 34
18 70 40 36 22 67 40 70 40 3 0 29 16 59 35 30 19 57 35 60 35 3 0 35 18 71
40 36 22 67 40 70 40 3 0 29 16 59 35 30 19 57 35 59 35 3 0 56 30 118 66 63
37 134 78 159 92 25 14 59 34 75 44 17 10 37 21 45 25 8 4 38 22 67 40 29 18
55 33 58 33 3 0 22 11 43 23 74 47 134 57 219 36z m1696 -166 c7 -22 54 -105
108 -190 21 -34 39 -64 39 -66 0 -3 30 -56 66 -118 128 -220 117 -195 97 -231
-72 -129 -243 -326 -391 -451 -82 -69 -296 -227 -308 -227 -3 0 -20 -10 -37
-22 -18 -13 -41 -28 -52 -34 -11 -6 -47 -26 -80 -44 -77 -43 -252 -128 -328
-159 -129 -52 -304 7 -386 130 -90 134 -77 306 32 423 32 35 79 64 202 126
179 89 262 135 286 156 8 8 19 14 23 14 11 0 142 99 236 178 46 40 88 72 92
72 5 0 44 23 88 50 44 28 83 50 88 50 17 0 124 104 147 145 28 47 55 139 55
185 0 33 14 40 23 13z m1164 -360 c14 -21 18 -48 18 -118 0 -85 -2 -94 -32
-141 -45 -70 -150 -143 -167 -115 -9 14 4 41 20 41 7 0 37 24 66 53 76 74 91
131 63 236 -8 30 -12 58 -9 63 9 15 23 8 41 -19z m-5017 -363 c4 -14 16 -44
28 -68 43 -89 42 -92 -46 -183 l-80 -82 -33 12 c-19 7 -43 17 -54 21 -11 4
-48 18 -83 30 -34 13 -65 26 -67 31 -3 4 6 29 20 55 14 26 25 52 25 58 1 12
35 56 44 56 7 0 177 78 196 90 24 15 43 7 50 -20z m-573 -172 c29 -29 53 -57
53 -63 0 -6 -16 -27 -36 -46 -35 -33 -37 -34 -135 -37 l-99 -4 0 76 c0 54 4
76 13 77 6 0 32 11 57 24 69 35 87 32 147 -27z m2121 25 c26 -38 72 -122 72
-132 0 -13 -169 -124 -220 -145 -90 -37 -265 -16 -309 37 -11 14 33 44 177
124 26 14 52 29 57 33 6 4 37 22 70 40 33 18 71 41 85 51 34 25 45 24 68 -8z
m-1235 -570 c3 -53 3 -101 0 -106 -3 -4 -49 -30 -103 -56 -76 -37 -102 -46
-117 -38 -23 13 -166 136 -175 152 -4 7 15 33 48 66 51 51 58 55 127 65 39 6
104 12 143 13 l71 1 6 -97z"/>
<path d="M5025 8664 c-49 -7 -112 -13 -139 -13 -27 -1 -76 -5 -110 -11 -33 -5
-133 -16 -221 -25 -88 -9 -182 -20 -208 -26 -27 -5 -65 -9 -85 -9 -20 0 -84
-7 -142 -15 -116 -18 -182 -27 -345 -50 -60 -8 -132 -20 -160 -25 -88 -17
-259 -51 -295 -60 -63 -14 -365 -119 -475 -165 -16 -6 -46 -18 -65 -25 -19 -6
-44 -16 -55 -20 -11 -5 -56 -23 -100 -40 -90 -36 -104 -41 -160 -65 -22 -9
-49 -20 -60 -25 -11 -4 -38 -15 -60 -25 -22 -9 -49 -20 -60 -24 -27 -11 -58
-24 -130 -57 -33 -14 -81 -34 -106 -44 -26 -10 -68 -28 -95 -40 -27 -12 -58
-26 -69 -30 -57 -25 -124 -54 -159 -71 -22 -11 -45 -19 -52 -19 -6 0 -26 -13
-43 -29 -25 -24 -31 -37 -31 -72 0 -24 -7 -104 -15 -179 -29 -253 -31 -279
-75 -710 -9 -88 -27 -260 -50 -475 -17 -159 -17 -189 1 -193 9 -2 43 9 75 24
33 14 68 30 79 34 11 5 45 20 75 33 43 19 313 131 475 197 18 7 38 16 120 50
11 4 52 20 90 35 39 15 84 33 100 40 17 7 104 41 195 75 91 34 181 68 200 75
19 7 69 26 110 40 41 15 83 31 92 36 10 5 23 9 30 9 7 0 42 11 78 24 36 12 90
31 120 40 30 10 64 21 75 26 11 4 47 16 80 25 33 10 69 21 80 26 11 4 31 10
45 13 14 3 50 11 80 20 139 37 210 55 268 67 36 8 67 20 71 29 4 8 13 49 20
90 43 262 200 473 444 599 148 76 365 113 486 82 20 -5 68 -17 106 -27 218
-54 424 -231 528 -455 26 -57 36 -61 109 -49 34 6 113 15 173 21 182 18 218
24 222 34 2 9 -7 24 -78 131 -14 21 -157 224 -318 449 -300 422 -309 434 -437
620 -78 113 -108 146 -128 144 -6 -1 -51 -8 -101 -15z m-327 -238 c160 -30
311 -141 383 -281 52 -99 87 -253 61 -269 -4 -3 -26 0 -48 5 -351 92 -665 11
-921 -236 -31 -30 -59 -52 -63 -50 -14 9 -47 89 -64 153 -33 131 -11 281 62
415 36 67 138 166 203 199 146 74 247 91 387 64z"/>
<path d="M4699 7611 c-215 -48 -387 -202 -467 -416 -7 -16 -13 -50 -14 -75 -3
-44 -2 -45 27 -44 17 1 68 9 115 18 47 9 112 20 145 25 33 5 103 17 155 25
102 16 107 17 280 41 63 9 144 20 180 25 36 5 106 15 155 21 130 17 132 19 98
81 -55 101 -176 210 -289 260 -65 28 -197 58 -259 57 -27 0 -84 -8 -126 -18z
m258 -103 c18 -7 33 -15 33 -19 0 -12 -66 -65 -121 -97 -68 -38 -128 -59 -202
-67 -71 -9 -227 3 -227 17 0 6 17 26 37 45 93 88 204 131 347 132 55 1 114 -4
133 -11z"/>
<path d="M6065 6911 c-141 -57 -238 -165 -274 -306 -20 -76 -11 -189 19 -262
28 -65 40 -82 95 -138 65 -65 117 -95 212 -119 76 -20 115 -20 184 0 121 35
192 81 252 167 67 94 82 144 81 262 -1 91 -4 106 -32 162 -17 35 -45 81 -63
102 -40 51 -130 113 -193 134 -66 23 -225 21 -281 -2z"/>
<path d="M1655 5759 c-38 -9 -54 -14 -110 -41 -45 -21 -133 -108 -164 -161
-60 -106 -76 -222 -45 -326 65 -219 268 -349 490 -313 85 14 147 46 219 113
143 134 176 322 89 507 -24 50 -127 155 -179 181 -95 47 -203 62 -300 40z"/>
<path d="M9240 5051 c-90 -19 -176 -88 -220 -175 -21 -42 -25 -64 -25 -136 0
-76 4 -94 29 -144 52 -103 152 -167 271 -174 59 -3 79 0 130 23 153 67 237
233 190 376 -34 102 -96 173 -183 210 -51 22 -140 32 -192 20z"/>
</g>
</svg>
